# xmcd
#
# Track frame offsets:
# 150
# 12133
# 19430
# 32277
# 52536
# 63000
# 76500
# 94172
# 104298
# 112930
# 124223
# 136543
# 151244
#
# Disc length: 2220 seconds
#
#
# Revision: 0
# Processed by: cddbd v1.5.2PL0 Copyright (c) Steve Scherf et al.
# Submitted via: FreeRIP 2.945 
#
DISCID=8208aa0d
DTITLE=Judy Whitney Davis - Songs from the Big House, Songs from the Field
DYEAR=2006
DGENRE=Gospel
TTITLE0=Ain't that good news
TTITLE1=Aurore Bradaire
TTITLE2=Didn't my Lord deliver Daniel
TTITLE3=Give me Jesus
TTITLE4=Ev'ry time I feel de Spirit I will pray
TTITLE5=Joshua fit de battle of Jericho
TTITLE6=Motherless child
TTITLE7=Gimme dat old time religion
TTITLE8=Standing in the need of a prayer
TTITLE9=Swing low sweet chariot
TTITLE10=Wade in the water
TTITLE11=Walk together children
TTITLE12=Give me Jesus (Acoustic)
EXTD=
EXTT0=
EXTT1=
EXTT2=
EXTT3=
EXTT4=
EXTT5=
EXTT6=
EXTT7=
EXTT8=
EXTT9=
EXTT10=
EXTT11=
EXTT12=
PLAYORDER=
